<svg height="512pt" viewBox="0 -21 512 512" width="512pt" xmlns="http://www.w3.org/2000/svg"><path d="m370.792969 0c-46.183594 0-88.660157 22.335938-114.792969 58.730469-26.132812-36.394531-68.609375-58.730469-114.792969-58.730469-77.847656 0-141.207031 63.230469-141.207031 140.949219 0 138.261719 211.09375 303.125 230.058594 317.675781 6.785156 6.824219 16.128906 10.707031 25.941406 10.707031s19.15625-3.882812 25.941406-10.707031c18.964844-14.550781 230.058594-179.414062 230.058594-317.675781 0-77.71875-63.359375-140.949219-141.207031-140.949219zm0 0" fill="#ffc107"/><path d="m256 469.332031c-9.792969 0-19.15625-3.882812-25.941406-10.6875-18.921875-14.507812-230.058594-179.414062-230.058594-317.695312 0-77.71875 63.359375-140.949219 141.226562-140.949219 46.164063 0 88.660157 22.335938 114.773438 58.730469 26.113281-36.394531 68.609375-58.730469 114.773438-58.730469 77.867187 0 141.226562 63.230469 141.226562 140.949219 0 138.28125-211.136719 303.167969-230.058594 317.675781-6.785156 6.824219-16.148437 10.707031-25.941406 10.707031zm-114.773438-437.332031c-60.222656 0-109.226562 48.875-109.226562 108.949219 0 125.953125 216.257812 291.308593 218.433594 292.972656.808594.59375 1.535156 1.277344 2.21875 2.023437 1.148437 1.261719 5.566406 1.261719 6.695312 0 .664063-.746093 1.410156-1.429687 2.21875-2.023437 2.175782-1.644531 218.433594-167.128906 218.433594-292.972656 0-60.074219-49.003906-108.949219-109.226562-108.949219-43.5625 0-82.835938 25.664062-100.097657 65.34375-5.074219 11.691406-24.277343 11.691406-29.351562 0-17.261719-39.679688-56.554688-65.34375-100.097657-65.34375zm0 0"/></svg>